<svg xmlns="http://www.w3.org/2000/svg" width="900" height="560" viewBox="0 0 900 560"><rect width="900" height="560" rx="24" fill="#f4f8fc"/><rect x="0" y="0" width="900" height="82" rx="24" fill="#082e63"/><text x="42" y="43" font-family="Arial,sans-serif" font-size="27" font-weight="800" fill="#fff">EXCEL · DATA QUALITY</text><text x="42" y="66" font-family="Arial,sans-serif" font-size="13" fill="#bcd5ef">UPI Transaction Analytics · actual workbook validation log</text><text x="42" y="124" font-family="Arial" font-size="16" font-weight="700" fill="#17324f">Data_Quality_Log.xlsx</text><rect x="42" y="145" width="816" height="250" rx="12" fill="#fff" stroke="#d8e5f1"/><rect x="42" y="145" width="138" height="38" fill="#0b5cab"/><text x="54" y="170" font-family="Arial" font-size="11" font-weight="800" fill="#fff">TABLE</text><rect x="180" y="145" width="260" height="38" fill="#0b5cab"/><text x="192" y="170" font-family="Arial" font-size="11" font-weight="800" fill="#fff">VALIDATION CHECK</text><rect x="440" y="145" width="280" height="38" fill="#0b5cab"/><text x="452" y="170" font-family="Arial" font-size="11" font-weight="800" fill="#fff">ACTUAL RESULT</text><rect x="720" y="145" width="100" height="38" fill="#0b5cab"/><text x="732" y="170" font-family="Arial" font-size="11" font-weight="800" fill="#fff">STATUS</text><rect x="42" y="183" width="138" height="42" fill="#f8fbfe" stroke="#e3ebf3"/><text x="52" y="208" font-family="Arial" font-size="10" fill="#36516d">customer_master</text><rect x="180" y="183" width="260" height="42" fill="#f8fbfe" stroke="#e3ebf3"/><text x="190" y="208" font-family="Arial" font-size="10" fill="#36516d">Total Records</text><rect x="440" y="183" width="280" height="42" fill="#f8fbfe" stroke="#e3ebf3"/><text x="450" y="208" font-family="Arial" font-size="10" fill="#36516d">10,000 records</text><rect x="720" y="183" width="100" height="42" fill="#f8fbfe" stroke="#e3ebf3"/><text x="730" y="208" font-family="Arial" font-size="10" fill="#36516d">Pass</text><rect x="42" y="225" width="138" height="42" fill="#f8fbfe" stroke="#e3ebf3"/><text x="52" y="250" font-family="Arial" font-size="10" fill="#36516d">customer_master</text><rect x="180" y="225" width="260" height="42" fill="#f8fbfe" stroke="#e3ebf3"/><text x="190" y="250" font-family="Arial" font-size="10" fill="#36516d">Missing Values</text><rect x="440" y="225" width="280" height="42" fill="#f8fbfe" stroke="#e3ebf3"/><text x="450" y="250" font-family="Arial" font-size="10" fill="#36516d">No blank cells found</text><rect x="720" y="225" width="100" height="42" fill="#f8fbfe" stroke="#e3ebf3"/><text x="730" y="250" font-family="Arial" font-size="10" fill="#36516d">Pass</text><rect x="42" y="267" width="138" height="42" fill="#f8fbfe" stroke="#e3ebf3"/><text x="52" y="292" font-family="Arial" font-size="10" fill="#36516d">customer_master</text><rect x="180" y="267" width="260" height="42" fill="#f8fbfe" stroke="#e3ebf3"/><text x="190" y="292" font-family="Arial" font-size="10" fill="#36516d">Duplicate customer_id</text><rect x="440" y="267" width="280" height="42" fill="#f8fbfe" stroke="#e3ebf3"/><text x="450" y="292" font-family="Arial" font-size="10" fill="#36516d">No duplicate IDs found</text><rect x="720" y="267" width="100" height="42" fill="#f8fbfe" stroke="#e3ebf3"/><text x="730" y="292" font-family="Arial" font-size="10" fill="#36516d">Pass</text><rect x="42" y="309" width="138" height="42" fill="#f8fbfe" stroke="#e3ebf3"/><text x="52" y="334" font-family="Arial" font-size="10" fill="#36516d">customer_master</text><rect x="180" y="309" width="260" height="42" fill="#f8fbfe" stroke="#e3ebf3"/><text x="190" y="334" font-family="Arial" font-size="10" fill="#36516d">Gender Validation</text><rect x="440" y="309" width="280" height="42" fill="#f8fbfe" stroke="#e3ebf3"/><text x="450" y="334" font-family="Arial" font-size="10" fill="#36516d">male, female, other only</text><rect x="720" y="309" width="100" height="42" fill="#f8fbfe" stroke="#e3ebf3"/><text x="730" y="334" font-family="Arial" font-size="10" fill="#36516d">Pass</text><rect x="42" y="351" width="138" height="42" fill="#f8fbfe" stroke="#e3ebf3"/><text x="52" y="376" font-family="Arial" font-size="10" fill="#36516d">customer_master</text><rect x="180" y="351" width="260" height="42" fill="#f8fbfe" stroke="#e3ebf3"/><text x="190" y="376" font-family="Arial" font-size="10" fill="#36516d">Region Validation</text><rect x="440" y="351" width="280" height="42" fill="#f8fbfe" stroke="#e3ebf3"/><text x="450" y="376" font-family="Arial" font-size="10" fill="#36516d">north, south, east, west, central</text><rect x="720" y="351" width="100" height="42" fill="#f8fbfe" stroke="#e3ebf3"/><text x="730" y="376" font-family="Arial" font-size="10" fill="#36516d">Pass</text><rect x="42" y="420" width="816" height="62" rx="12" fill="#e8f1fa"/><text x="62" y="447" font-family="Arial" font-size="13" font-weight="700" fill="#17324f">Excel data-quality validation</text><text x="62" y="468" font-family="Arial" font-size="11" fill="#60758b">Record counts · blanks · duplicates · category validation · formula-driven checks</text></svg>